# xmcd
#
# Track frame offsets:
#	150
#	12697
#	23606
#	36656
#	49206
#	62780
#	76266
#	88848
#	108724
#	128992
#	158669
#	169596
#	216576
#	230313
#	242582
#	256162
#	266722
#	294687
#
# Disc length: 4088 seconds
#
# Revision: 1
# Processed by: cddbd v1.5.2PL0 Copyright (c) Steve Scherf et al.
# Submitted via: audiograbber 1.83.01
#
DISCID=060ff612
DTITLE=Various Artist - Les Legendes du Blues - Electric Blues
DYEAR=2009
DGENRE=Blues
TTITLE0=John Lee Hooker - Hobo blues
TTITLE1=BB King - Catfish blues
TTITLE2=Elmore James - Dust my broom
TTITLE3=Jimmy Reed - Shame shame shame
TTITLE4=Robert Johnson - Sweet home Chicago
TTITLE5=Frank Edwards - My baby's gone
TTITLE6=T-Bone Walker - Blues is a woman
TTITLE7=John Mayall - Road show
TTITLE8=Magic Slim and James Cotton - When the levee breaks
TTITLE9=Johnny Winter - Third degree
TTITLE10=Jimmy Rodgers - That's all right
TTITLE11=Bo Diddley - I'm a man
TTITLE12=Pee Wee Crayton - Blues after hours
TTITLE13=Memphis Slim - Blues for my baby
TTITLE14=Jelly Roll Morton - Jelly roll blues
TTITLE15=Clarence Frogman Henry - Ain't got no home
TTITLE16=Magic Slim - Evil woman blues
TTITLE17=Charles Brown - Trouble blues
EXTD=
EXTT0=
EXTT1=
EXTT2=
EXTT3=
EXTT4=
EXTT5=
EXTT6=
EXTT7=
EXTT8=
EXTT9=
EXTT10=
EXTT11=
EXTT12=
EXTT13=
EXTT14=
EXTT15=
EXTT16=
EXTT17=
PLAYORDER=
